<svg width="36" height="36" viewBox="0 0 36 36" fill="none" xmlns="http://www.w3.org/2000/svg">
<rect width="36" height="36" fill="#E5E5E5"/>
<g clip-path="url(#clip0_0_1)">
<rect width="320" height="5264" transform="translate(-272 -17)" fill="white"/>
<rect width="320" height="111" transform="translate(-272 -17)" fill="white"/>
<g clip-path="url(#clip1_0_1)">
<path d="M31.5 27V31.5H4.5V4.5H31.5V9H15V27H31.5ZM18 24H33V12H18V24ZM24 20.25C22.755 20.25 21.75 19.245 21.75 18C21.75 16.755 22.755 15.75 24 15.75C25.245 15.75 26.25 16.755 26.25 18C26.25 19.245 25.245 20.25 24 20.25Z" fill="#07060B"/>
</g>
</g>
<defs>
<clipPath id="clip0_0_1">
<rect width="320" height="5264" fill="white" transform="translate(-272 -17)"/>
</clipPath>
<clipPath id="clip1_0_1">
<rect width="36" height="36" fill="white"/>
</clipPath>
</defs>
</svg>
